<svg xmlns="http://www.w3.org/2000/svg" version="1.1" xmlns:xlink="http://www.w3.org/1999/xlink" xmlns:svgjs="http://svgjs.dev/svgjs" width="1440" height="560" preserveAspectRatio="none" viewBox="0 0 1440 560"><g mask="url(&quot;#SvgjsMask1001&quot;)" fill="none"><rect width="1440" height="560" x="0" y="0" fill="rgba(235, 241, 247, 1)"></rect><path d="M0 46.67C5.39 20.72 5.89 7.74 29.09 0C75.89 -15.6 84.55 0 140 0C189.65 0 194.63 -12.41 239.3 0C264.63 7.04 256.72 38.89 280 38.89C315.96 38.89 316.98 11.33 357.78 0C386.98 -8.11 388.89 0 420 0C490 0 490 0 560 0C630 0 630 0 700 0C770 0 770 0 840 0C910 0 910 0 980 0C1050 0 1050 0 1120 0C1190 0 1190 0 1260 0C1330 0 1330 0 1400 0C1470 0 1505 -35 1540 0C1575 35 1540 70 1540 140C1540 210 1540 210 1540 280C1540 317.56 1556 324.8 1540 355.12C1519.06 394.8 1476.75 378.04 1466.11 420C1450.78 480.48 1508.45 516.83 1488.06 560C1475.39 586.83 1444.03 560 1400 560C1330 560 1330 560 1260 560C1190 560 1190 560 1120 560C1050 560 1050 560 980 560C910 560 910 560 840 560C770 560 770 560 700 560C684.69 560 681.94 567.85 669.38 560C611.94 524.1 603.32 472.5 560 472.5C530.77 472.5 557.57 539.2 524.29 560C487.57 582.95 472.14 560 420 560C361.93 560 327.27 591.67 303.86 560C275.53 521.67 324.25 487.09 316.52 420C312.32 383.49 297.82 352.8 280 352.8C262.42 352.8 258.92 384.8 245.71 420C220.03 488.4 239.33 510.86 202.22 560C186.47 580.86 171.11 560 140 560C70 560 35 595 0 560C-35 525 0 490 0 420C0 377.71 -8.66 375.5 0 335.42C6.46 305.5 30.23 307.51 30.23 280C30.23 253.72 6.15 256.33 0 227.84C-8.96 186.33 0 183.92 0 140C0 93.34 -9.15 90.72 0 46.67" stroke="rgba(51, 121, 194, 0.58)" stroke-width="2"></path><path d="M140 110.91C118.52 110.91 93.33 125.96 93.33 140C93.33 153.68 118.3 166.35 140 166.35C155.46 166.35 167.65 153.52 167.65 140C167.65 125.8 155.68 110.91 140 110.91" stroke="rgba(51, 121, 194, 0.58)" stroke-width="2"></path><path d="M420 73.68C404.97 73.68 389.64 105.8 389.64 140C389.64 189.36 404.98 240.8 420 240.8C434.99 240.8 449.65 189.4 449.65 140C449.65 105.84 434.97 73.68 420 73.68" stroke="rgba(51, 121, 194, 0.58)" stroke-width="2"></path><path d="M700 95.56C680.52 95.56 671.76 114.04 667.82 140C657.76 206.26 659.22 215.24 672 280C675.31 296.76 682.83 298.83 700 303.04C766.83 319.42 775.55 329.26 840 321.18C867.43 317.74 883.75 303.22 883.75 280C883.75 248.97 866.42 242.47 840 212.69C804.33 172.47 801.1 174.75 759.57 140C731.1 116.18 726.39 95.56 700 95.56" stroke="rgba(51, 121, 194, 0.58)" stroke-width="2"></path><path d="M980 114.55C956.93 114.55 936.92 127.35 936.92 140C936.92 152.61 956.97 165.07 980 165.07C1020.51 165.07 1064 152.62 1064 140C1064 127.36 1020.47 114.55 980 114.55" stroke="rgba(51, 121, 194, 0.58)" stroke-width="2"></path><path d="M1400 109.87C1385.96 109.87 1387.07 125.67 1372.64 140C1317.07 195.18 1321.85 202.91 1260 248.89C1227.69 272.91 1199.42 248.46 1184.32 280C1158.45 334.02 1155.6 363.6 1178.05 420C1193.44 458.67 1219.03 470.15 1260 470.15C1300.97 470.15 1314.79 456.89 1341.95 420C1384.79 361.81 1370.97 350 1400 280C1400 280 1400 280 1400 280C1415.07 210 1430.13 205.56 1430.13 140C1430.13 120.49 1414.7 109.87 1400 109.87" stroke="rgba(51, 121, 194, 0.58)" stroke-width="2"></path><path d="M0 119.58C5.98 119.58 20.42 129.94 20.42 140C20.42 149.76 6.06 159.22 0 159.22C-4.15 159.22 0 149.61 0 140C0 129.79 -4.23 119.58 0 119.58" stroke="rgba(51, 121, 194, 0.58)" stroke-width="2"></path><path d="M140 65.45C108.18 65.45 74.55 19.17 74.55 0C74.55 -13.56 107.28 0 140 0C169.3 0 198.6 -13.09 198.6 0C198.6 19.63 170.2 65.45 140 65.45" stroke="rgba(51, 121, 194, 0.58)" stroke-width="2"></path><path d="M210.86 140C244.97 108.39 245.62 77.78 280 77.78C313.92 77.78 347.47 104.37 347.47 140C347.47 189.33 316.18 195.72 280 247.69C267.45 265.72 261.47 261.31 250 280C208.61 347.47 211.6 349.72 174.29 420C156.6 453.32 168.19 464.56 140 487.2C81.04 534.56 37.09 577.8 0 560C-32.91 544.2 0 490 0 420C0 414.16 -2.59 413.51 0 408.33C32.41 343.51 28.56 339.43 70 280C98.56 239.03 104.28 243.04 140 207.53C174.71 173.04 174.97 173.27 210.86 140" stroke="rgba(51, 121, 194, 0.58)" stroke-width="2"></path><path d="M490.82 140C509.7 87.87 525.67 48.13 560 48.13C594.05 48.13 614.55 88.02 627.59 140C643.63 203.95 597.52 220.94 618.15 280C633.73 324.61 652.36 329.66 700 347.34C763.29 370.83 778.63 380.52 840 362.35C892.38 346.85 885.85 323.15 927.5 280C955.85 250.63 948.08 217.31 980 217.31C1029.6 217.31 1078.23 233.69 1090.53 280C1105.15 335.04 1053.94 347.74 1033.85 420C1015.01 487.74 1034.55 503.12 1012.67 560C1007.62 573.12 996.34 560 980 560C963.11 560 961.67 565.97 946.21 560C891.67 538.95 896.5 515.76 840 505.96C773.4 494.41 761.32 538.16 700 517.29C635.05 495.18 640.71 471.41 587.45 420C570.71 403.85 578.24 382.16 560 382.16C527.68 382.16 499.59 386.95 486.32 420C463.88 475.87 510.83 513.01 488.57 560C477.67 583.01 454.28 560 420 560C381.82 560 348.29 583.79 343.64 560C334.6 513.79 364.64 488.38 392.61 420C402.82 395.05 406.15 396.58 420 373.33C447.85 326.58 460.56 330.87 476 280C495.97 214.2 467.7 203.81 490.82 140" stroke="rgba(51, 121, 194, 0.58)" stroke-width="2"></path><path d="M700 40C668.27 40 637 10.84 637 0C637 -9.16 668.5 0 700 0C733.16 0 766.32 -9.23 766.32 0C766.32 10.77 732.93 40 700 40" stroke="rgba(51, 121, 194, 0.58)" stroke-width="2"></path><path d="M834.04 140C834.04 134.24 836.78 127.27 840 127.27C843.35 127.27 847.18 134.39 847.18 140C847.18 143.44 843.47 145.38 840 145.38C836.9 145.38 834.04 143.29 834.04 140" stroke="rgba(51, 121, 194, 0.58)" stroke-width="2"></path><path d="M980 61.52C938.11 61.52 897.14 17.06 897.14 0C897.14 -13.7 938.57 0 980 0C1024.13 0 1068.26 -13.86 1068.26 0C1068.26 16.9 1023.67 61.52 980 61.52" stroke="rgba(51, 121, 194, 0.58)" stroke-width="2"></path><path d="M1158.39 140C1158.39 85.37 1207.77 76.83 1260 16.47C1268.34 6.83 1267.28 1.44 1279.53 0C1337.28 -6.79 1339.76 0 1400 0C1470 0 1505 -35 1540 0C1575 35 1540 70 1540 140C1540 204.75 1555.46 269.5 1540 269.5C1522.67 269.5 1515.01 199.1 1474.43 140C1445.01 97.14 1436.32 65.57 1400 65.57C1365.31 65.57 1367.38 103.92 1332.41 140C1297.38 176.14 1299.1 210 1260 210C1212.09 210 1158.39 182.14 1158.39 140" stroke="rgba(51, 121, 194, 0.58)" stroke-width="2"></path><path d="M1198.54 560C1198.54 549.85 1227.19 536.9 1260 522.39C1327.92 492.35 1347.48 459.4 1400 470.91C1433.28 478.2 1431.61 526.62 1431.61 560C1431.61 571.16 1415.8 560 1400 560C1330 560 1330 560 1260 560C1229.27 560 1198.54 568.66 1198.54 560" stroke="rgba(51, 121, 194, 0.58)" stroke-width="2"></path><path d="M140 20C130.28 20 120 5.86 120 0C120 -4.14 130 0 140 0C148.95 0 157.91 -4 157.91 0C157.91 6 149.23 20 140 20" stroke="rgba(51, 121, 194, 0.58)" stroke-width="2"></path><path d="M254.07 140C254.07 126.59 267.11 116.67 280 116.67C292.72 116.67 305.3 126.64 305.3 140C305.3 158.5 292.76 180.38 280 180.38C267.15 180.38 254.07 158.45 254.07 140" stroke="rgba(51, 121, 194, 0.58)" stroke-width="2"></path><path d="M532 140C532.77 118.09 546.1 102.81 560 102.81C573.78 102.81 586.83 118.25 587.36 140C588.99 206.84 577.2 210.48 564.31 280C563.52 284.27 562.48 287.57 560 287.57C557.21 287.57 554.69 284.77 553.78 280C540.69 210.99 529.66 206.68 532 140" stroke="rgba(51, 121, 194, 0.58)" stroke-width="2"></path><path d="M980 8.48C974.22 8.48 968.57 2.35 968.57 0C968.57 -1.89 974.29 0 980 0C986.09 0 992.17 -1.91 992.17 0C992.17 2.33 986.02 8.48 980 8.48" stroke="rgba(51, 121, 194, 0.58)" stroke-width="2"></path><path d="M1214.84 140C1214.84 115.72 1239.6 85.1 1260 85.1C1278.27 85.1 1292.18 114.75 1292.18 140C1292.18 157.76 1277.38 171.11 1260 171.11C1238.71 171.11 1214.84 158.73 1214.84 140" stroke="rgba(51, 121, 194, 0.58)" stroke-width="2"></path><path d="M1400 21.27C1383.47 6.61 1360.93 5.66 1360.93 0C1360.93 -4.97 1380.47 0 1400 0C1470 0 1505 -35 1540 0C1575 35 1540 70 1540 140C1540 161 1545.01 182 1540 182C1534.38 182 1534.06 157.6 1518.73 140C1464.06 77.23 1462.37 76.61 1400 21.27" stroke="rgba(51, 121, 194, 0.58)" stroke-width="2"></path><path d="M109.77 280C109.77 261.14 123.16 248.71 140 248.71C162.02 248.71 187.5 258.68 187.5 280C187.5 315.89 160.2 363.13 140 363.13C121.34 363.13 109.77 318.35 109.77 280" stroke="rgba(51, 121, 194, 0.58)" stroke-width="2"></path><path d="M971.25 280C971.25 273.9 974.68 269.55 980 269.55C988.27 269.55 998.42 272.56 998.42 280C998.42 291.78 987.24 308 980 308C973.66 308 971.25 293.13 971.25 280" stroke="rgba(51, 121, 194, 0.58)" stroke-width="2"></path><path d="M656.08 420C656.08 404.29 675.06 393.88 700 391.65C767.02 385.65 770.98 393.05 840 403.53C864.31 407.22 886.67 410.07 886.67 420C886.67 430.58 865.45 439.38 840 444.56C772.12 458.37 765.09 466.66 700 457.97C673.13 454.38 656.08 437.45 656.08 420" stroke="rgba(51, 121, 194, 0.58)" stroke-width="2"></path><path d="M383.41 560C383.41 530.62 402.5 477.44 420 477.44C437.22 477.44 452.86 529.86 452.86 560C452.86 571.14 436.43 560 420 560C401.71 560 383.41 571.9 383.41 560" stroke="rgba(51, 121, 194, 0.58)" stroke-width="2"></path></g><defs><mask id="SvgjsMask1001"><rect width="1440" height="560" fill="#ffffff"></rect></mask></defs></svg>