<svg xmlns="http://www.w3.org/2000/svg" version="1.1" xmlns:xlink="http://www.w3.org/1999/xlink" xmlns:svgjs="http://svgjs.dev/svgjs" width="1440" height="560" preserveAspectRatio="none" viewBox="0 0 1440 560"><g mask="url(&quot;#SvgjsMask1292&quot;)" fill="none"><rect width="1440" height="560" x="0" y="0" fill="rgba(212, 223, 235, 1)"></rect><use xlink:href="#SvgjsG1299" transform="translate(0, 0)" fill="rgba(4, 111, 253, 0.4)"></use><use xlink:href="#SvgjsG1299" transform="translate(0, 180)" fill="rgba(4, 111, 253, 0.4)"></use><use xlink:href="#SvgjsG1299" transform="translate(0, 360)" fill="rgba(4, 111, 253, 0.4)"></use><use xlink:href="#SvgjsG1299" transform="translate(0, 540)" fill="rgba(4, 111, 253, 0.4)"></use><use xlink:href="#SvgjsG1299" transform="translate(180, 0)" fill="rgba(4, 111, 253, 0.4)"></use><use xlink:href="#SvgjsG1299" transform="translate(180, 180)" fill="rgba(4, 111, 253, 0.4)"></use><use xlink:href="#SvgjsG1299" transform="translate(180, 360)" fill="rgba(4, 111, 253, 0.4)"></use><use xlink:href="#SvgjsG1299" transform="translate(180, 540)" fill="rgba(4, 111, 253, 0.4)"></use><use xlink:href="#SvgjsG1299" transform="translate(360, 0)" fill="rgba(4, 111, 253, 0.4)"></use><use xlink:href="#SvgjsG1299" transform="translate(360, 180)" fill="rgba(4, 111, 253, 0.4)"></use><use xlink:href="#SvgjsG1299" transform="translate(360, 360)" fill="rgba(4, 111, 253, 0.4)"></use><use xlink:href="#SvgjsG1299" transform="translate(360, 540)" fill="rgba(4, 111, 253, 0.4)"></use><use xlink:href="#SvgjsG1299" transform="translate(540, 0)" fill="rgba(4, 111, 253, 0.4)"></use><use xlink:href="#SvgjsG1299" transform="translate(540, 180)" fill="rgba(4, 111, 253, 0.4)"></use><use xlink:href="#SvgjsG1299" transform="translate(540, 360)" fill="rgba(4, 111, 253, 0.4)"></use><use xlink:href="#SvgjsG1299" transform="translate(540, 540)" fill="rgba(4, 111, 253, 0.4)"></use><use xlink:href="#SvgjsG1299" transform="translate(720, 0)" fill="rgba(4, 111, 253, 0.4)"></use><use xlink:href="#SvgjsG1299" transform="translate(720, 180)" fill="rgba(4, 111, 253, 0.4)"></use><use xlink:href="#SvgjsG1299" transform="translate(720, 360)" fill="rgba(4, 111, 253, 0.4)"></use><use xlink:href="#SvgjsG1299" transform="translate(720, 540)" fill="rgba(4, 111, 253, 0.4)"></use><use xlink:href="#SvgjsG1299" transform="translate(900, 0)" fill="rgba(4, 111, 253, 0.4)"></use><use xlink:href="#SvgjsG1299" transform="translate(900, 180)" fill="rgba(4, 111, 253, 0.4)"></use><use xlink:href="#SvgjsG1299" transform="translate(900, 360)" fill="rgba(4, 111, 253, 0.4)"></use><use xlink:href="#SvgjsG1299" transform="translate(900, 540)" fill="rgba(4, 111, 253, 0.4)"></use><use xlink:href="#SvgjsG1299" transform="translate(1080, 0)" fill="rgba(4, 111, 253, 0.4)"></use><use xlink:href="#SvgjsG1299" transform="translate(1080, 180)" fill="rgba(4, 111, 253, 0.4)"></use><use xlink:href="#SvgjsG1299" transform="translate(1080, 360)" fill="rgba(4, 111, 253, 0.4)"></use><use xlink:href="#SvgjsG1299" transform="translate(1080, 540)" fill="rgba(4, 111, 253, 0.4)"></use><use xlink:href="#SvgjsG1299" transform="translate(1260, 0)" fill="rgba(4, 111, 253, 0.4)"></use><use xlink:href="#SvgjsG1299" transform="translate(1260, 180)" fill="rgba(4, 111, 253, 0.4)"></use><use xlink:href="#SvgjsG1299" transform="translate(1260, 360)" fill="rgba(4, 111, 253, 0.4)"></use><use xlink:href="#SvgjsG1299" transform="translate(1260, 540)" fill="rgba(4, 111, 253, 0.4)"></use></g><defs><mask id="SvgjsMask1292"><rect width="1440" height="560" fill="#ffffff"></rect></mask><g id="SvgjsG1296"><path d="M1.507 0.867v14.666h12.877V0.867h-12.878z m3.76 12.876H3.087V11.564H5.267v2.179z m0-3.328H3.087V8.236H5.267v2.179z m3.768 3.328H6.856V11.564h2.179v2.179z m0-3.328H6.856V8.236h2.179v2.179z m3.775 3.328H10.631v-5.507h2.179v5.507z m0.08-7.65h-9.78V2.602h9.78V6.093z"></path></g><g id="SvgjsG1297"><path d="M0.267 14.413h15.466V16H0.267z m0.632-1.535h13.998v0.872H0.899z m1.139-7.74h2.352v7.056h-2.352z m4.693 0h2.352v7.056h-2.352z m4.513 0h2.352v7.056H11.244zM0 3.595L8 0l8 3.595-0.007 0.927L0 4.535z"></path></g><g id="SvgjsG1298"><path d="M14.225 3.277L11.437 4.993v2.573h-1.067V4.125h-1.292V1.133h-3.432v4.899h-1.716v-1.683L2.536 3.492 1.142 4.349v3.003H0.07v7.507l15.442-0.001V9.282h-1.287V3.277z" fill-rule="evenodd"></path></g><g id="SvgjsG1293"><path d="M7.307 2.963c-1.9 0-2.983-1.592-2.997-1.613l0.688-0.456c0.062 0.094 1.572 2.276 4.211 0.617l0.44 0.698c-0.877 0.552-1.661 0.756-2.341 0.755zM14.34 2.91h0.828c-0.046-0.811-0.488-1.495-1.242-1.926-1.098-0.627-2.686-0.609-3.952 0.044l0.377 0.734c1.028-0.531 2.301-0.556 3.166-0.063 0.348 0.199 0.768 0.57 0.823 1.211zM15.158 3.825H14.339l-0.289 8.69-4.644-3.095v3.096l-4.646-3.096v3.096l-4.646-3.096v6.4h15.442l-0.398-11.995zM4.035 15.018H0.916v-1.52h3.121v1.52z m4.647 0H5.561v-1.52h3.121v1.52z m4.645 0H10.207v-1.52h3.12v1.52z"></path></g><g id="SvgjsG1294"><path d="M2.115 12.192a1.05 1.05 0 1 1 0-2.1 1.05 1.05 0 0 1 0 2.1zM0 16V13.942c0-0.742 0.61-1.344 1.352-1.344h1.45c0.743 0 1.406 0.603 1.406 1.345V16H0z m13-3.897a1.051 1.051 0 0 0 1.05-1.05 1.05 1.05 0 0 0-2.099 0 1.05 1.05 0 0 0 1.051 1.049zM15.114 16V13.942c0-0.742-0.61-1.344-1.353-1.344h-1.448c-0.744 0-1.406 0.603-1.407 1.345V16h4.208z"></path><path d="M6.494 11.133a1.062 1.053 0 1 0 2.124 0 1.062 1.053 0 1 0-2.124 0"></path><path d="M4.998 16l0.836-2.277c0.335-1.163 1.31-1.128 1.309-1.127h0.828s0.974-0.036 1.309 1.127L10.116 16h-5.118z m2.558-7.25v-2.491l-0.414-0.414v2.49H0.885V0.414h6.257V4.483l0.414 0.414V0H0.474v8.75h7.082z m5.44-4.548a1.049 1.049 0 0 1-1.048-1.048c0-0.579 0.47-1.049 1.048-1.049a1.047 1.047 0 0 1 1.047 1.048 1.046 1.046 0 0 1-1.048 1.048z"></path><path d="M8.329 6.958a0.441 0.441 0 0 0 0.442 0.442h1.454c0.165 0 0.382-0.066 0.474-0.205 0.314-0.464 0.643-0.953 0.741-1.1v2.749h3.661V6.025c0-0.737-0.576-1.401-1.256-1.4 0.002 0.346 0 0.118 0-0.015H12.082a1.343 1.343 0 0 0-1.119 0.599l-0.871 1.313-1.32-0.001L6.907 4.656a0.179 0.179 0 0 0-0.254 0 0.18 0.18 0 0 0 0 0.254l1.774 1.775c-0.038 0.063-0.098 0.192-0.097 0.273z"></path></g><g id="SvgjsG1295"><path d="M7.45 12.652S6.4 11.121 3.725 11.121C1.274 11.121 0 11.833 0 11.833V1.937s1.274-0.712 3.725-0.729C6.4 1.19 7.45 2.756 7.45 2.756V12.652z m1.087 0s1.05-1.531 3.725-1.531c2.451 0 3.725 0.712 3.725 0.713V1.937s-1.274-0.712-3.725-0.729c-2.675-0.017-3.725 1.548-3.725 1.548v9.896z"></path><path d="M8.012 15.733S6.4 13.411 3.725 13.411c-2.451 0-3.725 0.712-3.725 0.712v-1.186s1.274-0.712 3.725-0.729c2.675-0.018 4.287 2.34 4.287 2.34V15.733z m0 0s1.612-2.323 4.287-2.323c2.451 0 3.725 0.712 3.725 0.712v-1.185s-1.274-0.712-3.725-0.729c-2.675-0.019-4.287 2.339-4.287 2.339v1.185z"></path></g><g id="SvgjsG1299"><use xlink:href="#SvgjsG1293" transform="translate(0, 0) scale(0.9)" fill="rgba(4, 111, 253, 0.4)"></use><use xlink:href="#SvgjsG1293" transform="translate(0, 18) scale(0.9)" fill="rgba(4, 111, 253, 0.4)"></use><use xlink:href="#SvgjsG1294" transform="translate(0, 36) scale(0.9)" fill="rgba(4, 111, 253, 0.4)"></use><use xlink:href="#SvgjsG1295" transform="translate(0, 54) scale(0.9)" fill="rgba(4, 111, 253, 0.4)"></use><use xlink:href="#SvgjsG1295" transform="translate(0, 72) scale(0.9)" fill="rgba(4, 111, 253, 0.4)"></use><use xlink:href="#SvgjsG1296" transform="translate(0, 90) scale(0.9)" fill="rgba(4, 111, 253, 0.4)"></use><use xlink:href="#SvgjsG1296" transform="translate(0, 108) scale(0.9)" fill="rgba(4, 111, 253, 0.4)"></use><use xlink:href="#SvgjsG1293" transform="translate(0, 126) scale(0.9)" fill="rgba(4, 111, 253, 0.4)"></use><use xlink:href="#SvgjsG1297" transform="translate(0, 144) scale(0.9)" fill="rgba(4, 111, 253, 0.4)"></use><use xlink:href="#SvgjsG1298" transform="translate(0, 162) scale(0.9)" fill="rgba(4, 111, 253, 0.4)"></use><use xlink:href="#SvgjsG1293" transform="translate(18, 0) scale(0.9)" fill="rgba(4, 111, 253, 0.4)"></use><use xlink:href="#SvgjsG1297" transform="translate(18, 18) scale(0.9)" fill="rgba(4, 111, 253, 0.4)"></use><use xlink:href="#SvgjsG1295" transform="translate(18, 36) scale(0.9)" fill="rgba(4, 111, 253, 0.4)"></use><use xlink:href="#SvgjsG1293" transform="translate(18, 54) scale(0.9)" fill="rgba(4, 111, 253, 0.4)"></use><use xlink:href="#SvgjsG1293" transform="translate(18, 72) scale(0.9)" fill="rgba(4, 111, 253, 0.4)"></use><use xlink:href="#SvgjsG1294" transform="translate(18, 90) scale(0.9)" fill="rgba(4, 111, 253, 0.4)"></use><use xlink:href="#SvgjsG1294" transform="translate(18, 108) scale(0.9)" fill="rgba(4, 111, 253, 0.4)"></use><use xlink:href="#SvgjsG1298" transform="translate(18, 126) scale(0.9)" fill="rgba(4, 111, 253, 0.4)"></use><use xlink:href="#SvgjsG1296" transform="translate(18, 144) scale(0.9)" fill="rgba(4, 111, 253, 0.4)"></use><use xlink:href="#SvgjsG1294" transform="translate(18, 162) scale(0.9)" fill="rgba(4, 111, 253, 0.4)"></use><use xlink:href="#SvgjsG1293" transform="translate(36, 0) scale(0.9)" fill="rgba(4, 111, 253, 0.4)"></use><use xlink:href="#SvgjsG1297" transform="translate(36, 18) scale(0.9)" fill="rgba(4, 111, 253, 0.4)"></use><use xlink:href="#SvgjsG1294" transform="translate(36, 36) scale(0.9)" fill="rgba(4, 111, 253, 0.4)"></use><use xlink:href="#SvgjsG1297" transform="translate(36, 54) scale(0.9)" fill="rgba(4, 111, 253, 0.4)"></use><use xlink:href="#SvgjsG1297" transform="translate(36, 72) scale(0.9)" fill="rgba(4, 111, 253, 0.4)"></use><use xlink:href="#SvgjsG1294" transform="translate(36, 90) scale(0.9)" fill="rgba(4, 111, 253, 0.4)"></use><use xlink:href="#SvgjsG1296" transform="translate(36, 108) scale(0.9)" fill="rgba(4, 111, 253, 0.4)"></use><use xlink:href="#SvgjsG1297" transform="translate(36, 126) scale(0.9)" fill="rgba(4, 111, 253, 0.4)"></use><use xlink:href="#SvgjsG1297" transform="translate(36, 144) scale(0.9)" fill="rgba(4, 111, 253, 0.4)"></use><use xlink:href="#SvgjsG1294" transform="translate(36, 162) scale(0.9)" fill="rgba(4, 111, 253, 0.4)"></use><use xlink:href="#SvgjsG1294" transform="translate(54, 0) scale(0.9)" fill="rgba(4, 111, 253, 0.4)"></use><use xlink:href="#SvgjsG1297" transform="translate(54, 18) scale(0.9)" fill="rgba(4, 111, 253, 0.4)"></use><use xlink:href="#SvgjsG1298" transform="translate(54, 36) scale(0.9)" fill="rgba(4, 111, 253, 0.4)"></use><use xlink:href="#SvgjsG1294" transform="translate(54, 54) scale(0.9)" fill="rgba(4, 111, 253, 0.4)"></use><use xlink:href="#SvgjsG1293" transform="translate(54, 72) scale(0.9)" fill="rgba(4, 111, 253, 0.4)"></use><use xlink:href="#SvgjsG1296" transform="translate(54, 90) scale(0.9)" fill="rgba(4, 111, 253, 0.4)"></use><use xlink:href="#SvgjsG1294" transform="translate(54, 108) scale(0.9)" fill="rgba(4, 111, 253, 0.4)"></use><use xlink:href="#SvgjsG1296" transform="translate(54, 126) scale(0.9)" fill="rgba(4, 111, 253, 0.4)"></use><use xlink:href="#SvgjsG1293" transform="translate(54, 144) scale(0.9)" fill="rgba(4, 111, 253, 0.4)"></use><use xlink:href="#SvgjsG1293" transform="translate(54, 162) scale(0.9)" fill="rgba(4, 111, 253, 0.4)"></use><use xlink:href="#SvgjsG1293" transform="translate(72, 0) scale(0.9)" fill="rgba(4, 111, 253, 0.4)"></use><use xlink:href="#SvgjsG1293" transform="translate(72, 18) scale(0.9)" fill="rgba(4, 111, 253, 0.4)"></use><use xlink:href="#SvgjsG1294" transform="translate(72, 36) scale(0.9)" fill="rgba(4, 111, 253, 0.4)"></use><use xlink:href="#SvgjsG1297" transform="translate(72, 54) scale(0.9)" fill="rgba(4, 111, 253, 0.4)"></use><use xlink:href="#SvgjsG1293" transform="translate(72, 72) scale(0.9)" fill="rgba(4, 111, 253, 0.4)"></use><use xlink:href="#SvgjsG1296" transform="translate(72, 90) scale(0.9)" fill="rgba(4, 111, 253, 0.4)"></use><use xlink:href="#SvgjsG1294" transform="translate(72, 108) scale(0.9)" fill="rgba(4, 111, 253, 0.4)"></use><use xlink:href="#SvgjsG1293" transform="translate(72, 126) scale(0.9)" fill="rgba(4, 111, 253, 0.4)"></use><use xlink:href="#SvgjsG1297" transform="translate(72, 144) scale(0.9)" fill="rgba(4, 111, 253, 0.4)"></use><use xlink:href="#SvgjsG1294" transform="translate(72, 162) scale(0.9)" fill="rgba(4, 111, 253, 0.4)"></use><use xlink:href="#SvgjsG1298" transform="translate(90, 0) scale(0.9)" fill="rgba(4, 111, 253, 0.4)"></use><use xlink:href="#SvgjsG1295" transform="translate(90, 18) scale(0.9)" fill="rgba(4, 111, 253, 0.4)"></use><use xlink:href="#SvgjsG1294" transform="translate(90, 36) scale(0.9)" fill="rgba(4, 111, 253, 0.4)"></use><use xlink:href="#SvgjsG1294" transform="translate(90, 54) scale(0.9)" fill="rgba(4, 111, 253, 0.4)"></use><use xlink:href="#SvgjsG1298" transform="translate(90, 72) scale(0.9)" fill="rgba(4, 111, 253, 0.4)"></use><use xlink:href="#SvgjsG1298" transform="translate(90, 90) scale(0.9)" fill="rgba(4, 111, 253, 0.4)"></use><use xlink:href="#SvgjsG1297" transform="translate(90, 108) scale(0.9)" fill="rgba(4, 111, 253, 0.4)"></use><use xlink:href="#SvgjsG1295" transform="translate(90, 126) scale(0.9)" fill="rgba(4, 111, 253, 0.4)"></use><use xlink:href="#SvgjsG1298" transform="translate(90, 144) scale(0.9)" fill="rgba(4, 111, 253, 0.4)"></use><use xlink:href="#SvgjsG1294" transform="translate(90, 162) scale(0.9)" fill="rgba(4, 111, 253, 0.4)"></use><use xlink:href="#SvgjsG1296" transform="translate(108, 0) scale(0.9)" fill="rgba(4, 111, 253, 0.4)"></use><use xlink:href="#SvgjsG1293" transform="translate(108, 18) scale(0.9)" fill="rgba(4, 111, 253, 0.4)"></use><use xlink:href="#SvgjsG1295" transform="translate(108, 36) scale(0.9)" fill="rgba(4, 111, 253, 0.4)"></use><use xlink:href="#SvgjsG1297" transform="translate(108, 54) scale(0.9)" fill="rgba(4, 111, 253, 0.4)"></use><use xlink:href="#SvgjsG1295" transform="translate(108, 72) scale(0.9)" fill="rgba(4, 111, 253, 0.4)"></use><use xlink:href="#SvgjsG1298" transform="translate(108, 90) scale(0.9)" fill="rgba(4, 111, 253, 0.4)"></use><use xlink:href="#SvgjsG1295" transform="translate(108, 108) scale(0.9)" fill="rgba(4, 111, 253, 0.4)"></use><use xlink:href="#SvgjsG1296" transform="translate(108, 126) scale(0.9)" fill="rgba(4, 111, 253, 0.4)"></use><use xlink:href="#SvgjsG1293" transform="translate(108, 144) scale(0.9)" fill="rgba(4, 111, 253, 0.4)"></use><use xlink:href="#SvgjsG1295" transform="translate(108, 162) scale(0.9)" fill="rgba(4, 111, 253, 0.4)"></use><use xlink:href="#SvgjsG1293" transform="translate(126, 0) scale(0.9)" fill="rgba(4, 111, 253, 0.4)"></use><use xlink:href="#SvgjsG1293" transform="translate(126, 18) scale(0.9)" fill="rgba(4, 111, 253, 0.4)"></use><use xlink:href="#SvgjsG1294" transform="translate(126, 36) scale(0.9)" fill="rgba(4, 111, 253, 0.4)"></use><use xlink:href="#SvgjsG1294" transform="translate(126, 54) scale(0.9)" fill="rgba(4, 111, 253, 0.4)"></use><use xlink:href="#SvgjsG1296" transform="translate(126, 72) scale(0.9)" fill="rgba(4, 111, 253, 0.4)"></use><use xlink:href="#SvgjsG1297" transform="translate(126, 90) scale(0.9)" fill="rgba(4, 111, 253, 0.4)"></use><use xlink:href="#SvgjsG1294" transform="translate(126, 108) scale(0.9)" fill="rgba(4, 111, 253, 0.4)"></use><use xlink:href="#SvgjsG1294" transform="translate(126, 126) scale(0.9)" fill="rgba(4, 111, 253, 0.4)"></use><use xlink:href="#SvgjsG1296" transform="translate(126, 144) scale(0.9)" fill="rgba(4, 111, 253, 0.4)"></use><use xlink:href="#SvgjsG1294" transform="translate(126, 162) scale(0.9)" fill="rgba(4, 111, 253, 0.4)"></use><use xlink:href="#SvgjsG1297" transform="translate(144, 0) scale(0.9)" fill="rgba(4, 111, 253, 0.4)"></use><use xlink:href="#SvgjsG1298" transform="translate(144, 18) scale(0.9)" fill="rgba(4, 111, 253, 0.4)"></use><use xlink:href="#SvgjsG1296" transform="translate(144, 36) scale(0.9)" fill="rgba(4, 111, 253, 0.4)"></use><use xlink:href="#SvgjsG1295" transform="translate(144, 54) scale(0.9)" fill="rgba(4, 111, 253, 0.4)"></use><use xlink:href="#SvgjsG1293" transform="translate(144, 72) scale(0.9)" fill="rgba(4, 111, 253, 0.4)"></use><use xlink:href="#SvgjsG1298" transform="translate(144, 90) scale(0.9)" fill="rgba(4, 111, 253, 0.4)"></use><use xlink:href="#SvgjsG1298" transform="translate(144, 108) scale(0.9)" fill="rgba(4, 111, 253, 0.4)"></use><use xlink:href="#SvgjsG1294" transform="translate(144, 126) scale(0.9)" fill="rgba(4, 111, 253, 0.4)"></use><use xlink:href="#SvgjsG1294" transform="translate(144, 144) scale(0.9)" fill="rgba(4, 111, 253, 0.4)"></use><use xlink:href="#SvgjsG1293" transform="translate(144, 162) scale(0.9)" fill="rgba(4, 111, 253, 0.4)"></use><use xlink:href="#SvgjsG1294" transform="translate(162, 0) scale(0.9)" fill="rgba(4, 111, 253, 0.4)"></use><use xlink:href="#SvgjsG1293" transform="translate(162, 18) scale(0.9)" fill="rgba(4, 111, 253, 0.4)"></use><use xlink:href="#SvgjsG1298" transform="translate(162, 36) scale(0.9)" fill="rgba(4, 111, 253, 0.4)"></use><use xlink:href="#SvgjsG1297" transform="translate(162, 54) scale(0.9)" fill="rgba(4, 111, 253, 0.4)"></use><use xlink:href="#SvgjsG1297" transform="translate(162, 72) scale(0.9)" fill="rgba(4, 111, 253, 0.4)"></use><use xlink:href="#SvgjsG1296" transform="translate(162, 90) scale(0.9)" fill="rgba(4, 111, 253, 0.4)"></use><use xlink:href="#SvgjsG1298" transform="translate(162, 108) scale(0.9)" fill="rgba(4, 111, 253, 0.4)"></use><use xlink:href="#SvgjsG1298" transform="translate(162, 126) scale(0.9)" fill="rgba(4, 111, 253, 0.4)"></use><use xlink:href="#SvgjsG1293" transform="translate(162, 144) scale(0.9)" fill="rgba(4, 111, 253, 0.4)"></use><use xlink:href="#SvgjsG1297" transform="translate(162, 162) scale(0.9)" fill="rgba(4, 111, 253, 0.4)"></use></g></defs></svg>